<?xml version="1.0" encoding="utf-8"?>
<!-- Generator: Adobe Illustrator 20.1.0, SVG Export Plug-In . SVG Version: 6.00 Build 0)  -->
<svg version="1.1" xmlns="http://www.w3.org/2000/svg" xmlns:xlink="http://www.w3.org/1999/xlink" x="0px" y="0px"
	 viewBox="0 0 702.4 1080" style="enable-background:new 0 0 702.4 1080;" xml:space="preserve">
<style type="text/css">
	.st0{fill:#FFFFFF;}
	.st1{fill:none;stroke:#FFFFFF;stroke-width:3;stroke-miterlimit:10;}
	.st2{display:none;}
	.st3{display:inline;}
	.st4{fill:none;stroke:#E51F20;stroke-width:3;stroke-miterlimit:10;}
	.st5{fill:none;stroke:#E51F20;stroke-width:3;stroke-miterlimit:10;stroke-dasharray:12.6342,12.6342;}
</style>
<g id="Layer_6">
	<path class="st0" d="M594.6,329c-0.4,0-0.8-0.1-1.2-0.2l-49.1-14c-3.2-0.9-4.9-5.3-4.4-11.1c0.6-6.5,2.1-13.9,4.4-22.1
		c2.3-8.1,5-15.2,7.8-21.1c2.6-5.2,6.3-8,9.5-7.1l49.1,14c3.2,0.9,4.9,5.3,4.4,11.1c-0.6,6.5-2.1,13.9-4.4,22.1l0,0
		c-2.3,8.1-5,15.2-7.8,21.1C600.6,326.2,597.5,329,594.6,329z M560.4,256.3c-1.5,0-3.7,1.8-5.6,5.6c-2.8,5.7-5.4,12.6-7.7,20.6
		c-2.3,8-3.7,15.2-4.3,21.5c-0.4,4.6,0.8,7.5,2.2,7.9l49.1,14c1.4,0.4,4-1.4,6-5.5c2.8-5.7,5.4-12.6,7.7-20.6l0,0
		c2.3-8,3.7-15.2,4.3-21.5c0.4-4.6-0.8-7.5-2.2-7.9l-49.1-14C560.7,256.3,560.6,256.3,560.4,256.3z"/>
	<path class="st0" d="M444.8,452.9l-0.7-2.9c0.6-0.2,1.3-0.3,2-0.5c8-2,15-4.3,20.8-7c4.2-1.9,6.1-4.4,5.7-5.8l-12.3-49.5
		c-0.4-1.4-3.2-2.7-7.8-2.5c-6.3,0.4-13.6,1.6-21.7,3.6c-5.3,1.3-10.3,2.8-14.7,4.5l-1-2.8c4.5-1.7,9.6-3.2,15-4.6
		c8.2-2,15.7-3.3,22.2-3.7c5.8-0.4,10.1,1.5,10.9,4.7l12.3,49.5c0.8,3.2-2.1,6.9-7.4,9.3c-6,2.7-13.1,5.1-21.3,7.1
		C446.2,452.6,445.5,452.7,444.8,452.9z"/>
	<path class="st0" d="M603,267.8c-1.2,0-2.5-0.2-3.7-0.5l-43.6-12.4c-3.3-0.9-6.1-3.1-7.7-6.1c-1.7-3-2.1-6.5-1.1-9.8l0.6-2
		c0.9-3.3,3.1-6.1,6.1-7.7c3-1.7,6.5-2.1,9.8-1.1l2,0.6l4.9-17.3c2-7.2,9.5-11.3,16.7-9.3l28.7,8.2c3.5,1,6.3,3.3,8.1,6.4
		c1.8,3.2,2.2,6.8,1.2,10.3l-8.9,31.2c-1,3.5-3.3,6.3-6.4,8.1C607.5,267.2,605.2,267.8,603,267.8z M559.8,230.5
		c-1.7,0-3.3,0.4-4.8,1.3c-2.3,1.3-4,3.4-4.7,5.9l-0.6,2c-0.7,2.5-0.4,5.2,0.9,7.5c1.3,2.3,3.4,4,5.9,4.7l43.6,12.4
		c5.6,1.6,11.4-1.7,13-7.2l8.9-31.2c0.8-2.7,0.4-5.5-0.9-8c-1.4-2.5-3.6-4.2-6.3-5l-28.7-8.2c-5.6-1.6-11.4,1.7-13,7.2l-5.7,20.2
		l-4.9-1.4C561.6,230.6,560.7,230.5,559.8,230.5z"/>
	<path class="st0" d="M606.2,256.4c-1.2,0-2.5-0.2-3.7-0.5l-28.7-8.2c-7.2-2-11.3-9.5-9.3-16.7l5.6-19.8c1-3.5,3.3-6.3,6.4-8.1
		c3.2-1.8,6.8-2.2,10.3-1.2l28.7,8.2c3.5,1,6.3,3.3,8.1,6.4c1.8,3.2,2.2,6.8,1.2,10.3l-5.6,19.8
		C617.5,252.6,612.1,256.4,606.2,256.4z M573.1,212.1l-5.6,19.8c-1.6,5.6,1.7,11.4,7.2,13l28.7,8.2c5.6,1.6,11.4-1.7,13-7.2
		l5.6-19.8c1.6-5.6-1.7-11.4-7.2-13l-28.7-8.2c-2.7-0.8-5.5-0.4-8,0.9C575.6,207.2,573.8,209.4,573.1,212.1L573.1,212.1z"/>
	<path class="st0" d="M165.4,681.4c-3.8-2.9-6.8-6.5-8.9-10.7c-16.6-32.6-22-68.9-16.1-107.7c4.9-31.6,16.2-56.8,22.5-69l2.7,1.4
		c-11.2,21.7-44.9,98.5-6.4,173.9c2,3.8,4.7,7.1,8.1,9.7L165.4,681.4z"/>
	<path class="st0" d="M211.4,646.8c-0.4-1.1-0.9-2.3-1.5-3.4c-24.6-48.2-4.7-99.6,5-119.4l2.7,1.3c-9.5,19.4-29,69.7-5.1,116.8
		c0.6,1.2,1.2,2.5,1.6,3.7L211.4,646.8z"/>
	<path class="st0" d="M470.8,443.8l-0.8-2.9c2.5-0.7,24.9-7.1,50.8-24c34.6-22.7,59-52.9,72.6-89.9l2.8,1
		c-13.6,37.1-39.1,68.7-73.8,91.4C496.2,436.6,473.3,443.1,470.8,443.8z"/>
	<path class="st0" d="M458.9,385.4l-0.8-2.9c0.2,0,15.8-4.6,33.5-17.2c22.7-16.1,38.6-37.5,47-63.5c0.6-1.9,1.4-3.8,2.4-5.5l2.6,1.4
		c-0.9,1.6-1.6,3.3-2.2,5c-8.7,26.7-24.9,48.6-48.1,65.1C475,380.7,459.1,385.3,458.9,385.4z"/>
</g>
<g id="leg_x5F_back">
	<path class="st0" d="M392.8,872.6l-2.6-1.5c18.4-32.7,21.6-72.5,9.2-114.9c-5.8-20-14.2-37-20.1-47.7l2.6-1.5
		c6,10.9,14.4,28.1,20.4,48.3C414.9,798.6,411.7,839.1,392.8,872.6z"/>
	<path class="st0" d="M327.9,863.7l-2.9-0.9c1.2-4,3.1-7.6,5.8-10.8c38.5-47.2-4.7-116.4-9.7-124.1l2.5-1.6
		c3.5,5.4,15.5,24.8,22,49.1c8.4,31.7,4.3,58.1-12.4,78.5C330.7,856.9,329,860.2,327.9,863.7z"/>
	<path class="st0" d="M556.2,819c-7.9-53.5-39.6-101.9-64.7-133.1l2.3-1.9c25.4,31.4,57.3,80.3,65.3,134.5L556.2,819z"/>
	<path class="st0" d="M498.3,834.4c-0.6-1.7-1-3.6-1.2-5.4c-5.2-37.8-28.2-74.2-46.5-98.1c-14.1-18.4-27.6-32.2-34.3-38.8l2.1-2.1
		c6.8,6.6,20.4,20.5,34.6,39.1c18.6,24.2,41.8,61.1,47.1,99.6c0.2,1.7,0.6,3.3,1.1,4.9L498.3,834.4z"/>
</g>
<g id="feet_x5F_back">
</g>
<g id="leg_x5F_front">
</g>
<g id="feet_x5F_front">
	<g>
		<path class="st0" d="M501.9,881.5c-1.5,0-3-0.6-4.1-1.6c-1.2-1.1-1.9-2.6-2-4.2l-0.2-3.7c-0.1-2.4,1.3-4.6,3.4-5.7l-1.4-33.7
			l46.4-2c5.8-10.5,16.8-17.3,28.8-17.8c9.2-0.4,18.1,2.8,24.9,9.1s10.8,14.8,11.2,24l0.6,15.2c1.2,0.2,2.2,0.7,3.1,1.5
			c1.2,1.1,1.9,2.6,2,4.2l0.2,3.7c0.1,3.3-2.5,6.2-5.8,6.3l-106.8,4.5C502.1,881.5,502,881.5,501.9,881.5z M500.7,835.4l1.4,33
			l-1.2,0.3c-1.4,0.4-2.3,1.7-2.3,3.1l0.2,3.7c0,0.8,0.4,1.6,1,2.1s1.4,0.8,2.2,0.8l106.8-4.5c0.8,0,1.6-0.4,2.1-1
			c0.6-0.6,0.8-1.4,0.8-2.2l-0.2-3.7c-0.1-1.7-1.5-3-3.2-2.9l-1.8,0.1l-0.8-18.1c-0.4-8.4-4-16.2-10.2-21.9
			c-6.2-5.7-14.3-8.7-22.7-8.3c-11.2,0.5-21.4,7-26.7,16.9l-0.4,0.8L500.7,835.4z"/>
		<path class="st0" d="M412.2,946c-0.7,0-1.4-0.1-2.1-0.4L310,908.2c-1.5-0.6-2.7-1.7-3.4-3.2s-0.7-3.1-0.2-4.6l1.3-3.5
			c0.8-2.3,3-3.8,5.3-3.9l11.8-31.6l43.5,16.3c9.5-7.4,22.2-9.4,33.4-5.2l0,0c8.7,3.2,15.5,9.7,19.4,18.1c3.8,8.4,4.2,17.8,0.9,26.5
			l-5.3,14.2c1,0.6,1.8,1.5,2.3,2.6c0.7,1.5,0.7,3.1,0.2,4.6l-1.3,3.5c-0.6,1.5-1.7,2.7-3.2,3.4C414,945.8,413.1,946,412.2,946z
			 M313.4,895.9c-1.3,0-2.4,0.8-2.9,2l-1.3,3.5c-0.3,0.8-0.3,1.6,0.1,2.4s1,1.3,1.7,1.6l100.1,37.4c0.8,0.3,1.6,0.3,2.4-0.1
			c0.7-0.3,1.3-1,1.6-1.7l1.3-3.5c0.3-0.8,0.3-1.6-0.1-2.4c-0.3-0.7-1-1.3-1.7-1.6l-1.7-0.6l6.3-16.9c3-7.9,2.7-16.5-0.9-24.2
			c-3.5-7.7-9.8-13.5-17.7-16.5c-10.5-3.9-22.5-1.9-31.2,5.2l-0.7,0.5l-42.3-15.8L315,896.1l-1.2-0.2
			C313.7,895.9,313.6,895.9,313.4,895.9z"/>
	</g>
</g>
<g id="b2">
	<path class="st0" d="M503,674.5l-0.7-2.9l11.1-2.8c5.1-1.3,8.2-6.4,6.9-11.5l-12.1-48.8l2.9-0.7l12.1,48.8c0.8,3.2,0.3,6.6-1.4,9.5
		c-1.7,2.9-4.5,4.9-7.7,5.7L503,674.5z"/>
	<path class="st0" d="M496.8,615.3l-0.7-2.9l7.3-1.8c2.5-0.6,4.5-2.1,5.8-4.3c1.3-2.2,1.7-4.7,1.1-7.2l-4.2-16.8
		c-0.6-2.5-2.1-4.5-4.3-5.8c-2.2-1.3-4.7-1.7-7.2-1.1l-21.4,5.3l-0.7-2.9l21.4-5.3c3.2-0.8,6.6-0.3,9.5,1.4c2.9,1.7,4.9,4.5,5.7,7.7
		l4.2,16.8c0.8,3.2,0.3,6.6-1.4,9.5c-1.7,2.9-4.5,4.9-7.7,5.7L496.8,615.3z"/>
</g>
<g id="Layer_4">
	
		<rect x="383.8" y="688.3" transform="matrix(0.9704 -0.2416 0.2416 0.9704 -154.1644 122.4197)" class="st0" width="76.6" height="3"/>
	
		<rect x="242.2" y="510.1" transform="matrix(0.9703 -0.2417 0.2417 0.9703 -131.0893 75.8692)" class="st0" width="3" height="124.2"/>
	
		<rect x="449.1" y="453.1" transform="matrix(0.9703 -0.2417 0.2417 0.9703 -105.0904 123.4521)" class="st0" width="3" height="74"/>
	
		<rect x="469.8" y="557.3" transform="matrix(0.9703 -0.2417 0.2417 0.9703 -124.5542 130.9228)" class="st0" width="3" height="31.5"/>
	
		<rect x="276.1" y="415.9" transform="matrix(0.9691 -0.2467 0.2467 0.9691 -93.7851 86.2918)" class="st0" width="42.5" height="3"/>
	<path class="st0" d="M393.2,468l-0.7-2.9l47.1-11.7c2.4-0.6,4.1-2.7,4.3-5.2c0.4-6.6,0.1-17.2-3.1-30.2l-0.2-0.6
		c-4.6-17.9-22.8-28.8-40.8-24.3l-16.5,4.1l-0.7-2.9l16.5-4.1c19.5-4.9,39.4,7,44.4,26.5l0.2,0.6c3.3,13.4,3.6,24.3,3.2,31.1
		c-0.2,3.8-2.8,7-6.6,7.9L393.2,468z"/>
	
		<rect x="232.4" y="497.4" transform="matrix(0.9703 -0.2418 0.2418 0.9703 -112.832 78.4729)" class="st0" width="61.6" height="3"/>
	<path class="st0" d="M219.5,442.1l-2-2.2c4.5-4.1,9.9-7,15.8-8.5l11.5-2.5l0.6,2.9l-11.4,2.4C228.7,435.7,223.6,438.4,219.5,442.1z
		"/>
	<path class="st0" d="M282.9,738.5c-3,0-5.8-1.5-7.4-4.2c-2.7-4.5-6.7-12-9.9-22.3l2.9-0.9c3.1,10,6.9,17.3,9.6,21.6
		c1.3,2.1,3.8,3.2,6.2,2.6l86.6-21.6c4.8-1.2,8.5-5.1,9.4-10l0-0.3l11.6-19.5l0.6-0.2l51.5-12.8l19.4,11.8l0.2,0.2
		c3.1,3.9,8.2,5.6,13,4.4l20.1-5c2.4-0.6,4.1-2.7,4.3-5.2c0.1-1.3,0.1-2.6,0.1-3.9l-15.5-47.7l2.9-0.9l15.6,48.1l0,0.2
		c0,1.5,0,2.9-0.1,4.3c-0.2,3.8-2.8,7-6.6,7.9l-20.1,5c-5.9,1.5-12.1-0.6-15.9-5.3l-17.8-10.8l-49.7,12.4l-10.7,17.9
		c-1.2,5.9-5.7,10.7-11.6,12.1L285,738.3C284.3,738.4,283.6,738.5,282.9,738.5z"/>
	<path class="st0" d="M263,682.1c-6.2,0-11.5-4.2-13.1-10.2l-3.5-14.1c-1.1-4.6,0.2-9.5,3.6-12.8l2.1,2.1c-2.6,2.6-3.7,6.4-2.8,10
		l3.5,14.1c1.3,5,5.9,8.4,11.1,7.9l0.3,3C263.8,682.1,263.4,682.1,263,682.1z"/>
	<path class="st0" d="M330.8,665.6l-0.7-2.9l156.6-39c2.7-0.7,5-2.4,6.5-4.8s1.9-5.2,1.2-7.9l-3.5-14.1c-0.7-2.7-2.4-5-4.8-6.5
		c-2.4-1.4-5.2-1.9-7.9-1.2l-152.5,38l-0.7-2.9l152.5-38c3.5-0.9,7.1-0.3,10.2,1.5c3.1,1.9,5.3,4.8,6.1,8.3l3.5,14.1
		c0.9,3.5,0.3,7.1-1.5,10.2c-1.9,3.1-4.8,5.3-8.3,6.1L330.8,665.6z"/>
	<path class="st1" d="M260.2,663.9"/>
	<path class="st1" d="M326.3,647.5"/>
	<polygon class="st0" points="330.6,648 329.9,645 492.7,604.5 492.5,603.3 329.9,643.8 329.2,640.9 494.6,599.7 496.4,606.7 	"/>
	<polygon class="st0" points="249.1,668.3 247.3,661.3 254.9,659.4 255.6,662.3 251,663.5 251.3,664.6 255.5,663.6 256.2,666.5 	"/>
	<path class="st0" d="M246.7,658.8l-0.8-3.4c-0.2-1-0.1-1.9,0.4-2.8s1.3-1.4,2.3-1.7l3.4-0.9l0.7,2.9l-3.4,0.9
		c-0.2,0.1-0.4,0.2-0.4,0.3c-0.1,0.1-0.1,0.3-0.1,0.5l0.1,0.5l4.1-1l0.7,2.9L246.7,658.8z"/>
	<path class="st1" d="M253.4,655.6"/>
	<path class="st0" d="M328.6,638.4l-0.7-2.9L490.4,595l-0.1-0.5c-0.1-0.4-0.5-0.6-0.8-0.5L328,634.3l-0.7-2.9l161.4-40.2
		c2-0.5,4,0.7,4.5,2.7l0.8,3.4L328.6,638.4z"/>
	<path class="st0" d="M254.1,676.9c-0.7,0-1.3-0.2-1.9-0.5c-0.8-0.5-1.4-1.3-1.7-2.3l-0.8-3.4l11.2-2.8l0.7,2.9l-8.3,2.1l0.1,0.5
		c0.1,0.2,0.2,0.4,0.3,0.4s0.3,0.1,0.5,0.1l7.7-1.9l0.7,2.9l-7.7,1.9C254.7,676.9,254.4,676.9,254.1,676.9z"/>
	<path class="st1" d="M262.3,673.5"/>
	<path class="st0" d="M329,658.4l-0.7-2.9l166.1-41.4c0.4-0.1,0.6-0.5,0.5-0.8l-0.1-0.5L328,654.3l-0.7-2.9L497,609.1l0.8,3.4
		c0.5,2-0.7,4-2.7,4.5L329,658.4z"/>
	<path class="st0" d="M369.5,631.3c-3,0-5.8-2.1-6.6-5.1c-0.9-3.6,1.3-7.3,4.9-8.2c3.6-0.9,7.3,1.3,8.2,4.9c0.9,3.6-1.3,7.3-4.9,8.2
		C370.6,631.2,370,631.3,369.5,631.3z M369.5,620.8c-0.3,0-0.6,0-0.9,0.1c-2,0.5-3.2,2.6-2.7,4.6c0.5,2,2.5,3.2,4.6,2.7
		c1-0.2,1.8-0.9,2.3-1.7c0.5-0.9,0.7-1.9,0.4-2.9l0,0C372.7,621.9,371.2,620.8,369.5,620.8z"/>
	<path class="st0" d="M369.5,628.9c-0.8,0-1.6-0.2-2.3-0.6c-1-0.6-1.7-1.6-2-2.7c-0.3-1.1-0.1-2.3,0.5-3.3c0.6-1,1.6-1.7,2.7-2
		c1.1-0.3,2.3-0.1,3.3,0.5c1,0.6,1.7,1.6,2,2.7c0.3,1.1,0.1,2.3-0.5,3.3c-0.6,1-1.6,1.7-2.7,2C370.2,628.9,369.9,628.9,369.5,628.9z
		 M369.5,623.2c-0.1,0-0.2,0-0.3,0c-0.4,0.1-0.7,0.3-0.9,0.6s-0.2,0.7-0.2,1c0.1,0.4,0.3,0.7,0.6,0.9s0.7,0.2,1,0.2
		c0.4-0.1,0.7-0.3,0.9-0.6s0.2-0.7,0.2-1c-0.1-0.4-0.3-0.7-0.6-0.9C370,623.2,369.8,623.2,369.5,623.2z"/>
	<path class="st0" d="M374.2,650.2c-3,0-5.8-2.1-6.6-5.1c-0.9-3.6,1.3-7.3,4.9-8.2c1.8-0.4,3.6-0.2,5.1,0.8s2.6,2.4,3.1,4.2h0
		c0.9,3.6-1.3,7.3-4.9,8.2C375.3,650.1,374.8,650.2,374.2,650.2z M374.2,639.7c-0.3,0-0.6,0-0.9,0.1c-2,0.5-3.2,2.6-2.7,4.6
		c0.5,2,2.6,3.2,4.6,2.7c2-0.5,3.2-2.6,2.7-4.6c-0.2-1-0.9-1.8-1.7-2.3C375.6,639.8,374.9,639.7,374.2,639.7z"/>
	<path class="st0" d="M374.2,647.8c-0.8,0-1.6-0.2-2.3-0.6c-1-0.6-1.7-1.6-2-2.7c-0.3-1.1-0.1-2.3,0.5-3.3c0.6-1,1.6-1.7,2.7-2
		c1.1-0.3,2.3-0.1,3.3,0.5c1,0.6,1.7,1.6,2,2.7c0.3,1.1,0.1,2.3-0.5,3.3c-0.6,1-1.6,1.7-2.7,2C374.9,647.8,374.6,647.8,374.2,647.8z
		 M374.2,642c-0.1,0-0.2,0-0.3,0c-0.4,0.1-0.7,0.3-0.9,0.6s-0.2,0.7-0.2,1c0.1,0.4,0.3,0.7,0.6,0.9s0.7,0.2,1,0.2
		c0.4-0.1,0.7-0.3,0.9-0.6s0.2-0.7,0.2-1c-0.1-0.4-0.3-0.7-0.6-0.9C374.7,642.1,374.5,642,374.2,642z"/>
	<path class="st0" d="M446.5,612.1c-3,0-5.8-2.1-6.6-5.1c-0.9-3.6,1.3-7.3,4.9-8.2c3.6-0.9,7.3,1.3,8.2,4.9v0
		c0.4,1.8,0.2,3.6-0.8,5.1s-2.4,2.6-4.2,3.1C447.6,612.1,447.1,612.1,446.5,612.1z M446.5,601.6c-0.3,0-0.6,0-0.9,0.1
		c-2,0.5-3.2,2.6-2.7,4.6c0.5,2,2.6,3.2,4.6,2.7c1-0.2,1.8-0.9,2.3-1.7c0.5-0.9,0.7-1.9,0.4-2.9l0,0
		C449.8,602.7,448.2,601.6,446.5,601.6z"/>
	<path class="st0" d="M446.5,609.7c-0.8,0-1.6-0.2-2.3-0.6c-1-0.6-1.7-1.6-2-2.7c-0.3-1.1-0.1-2.3,0.5-3.3c0.6-1,1.6-1.7,2.7-2
		c1.1-0.3,2.3-0.1,3.3,0.5c1,0.6,1.7,1.6,2,2.7c0.3,1.1,0.1,2.3-0.5,3.3c-0.6,1-1.6,1.7-2.7,2C447.2,609.7,446.9,609.7,446.5,609.7z
		 M446.5,604c-0.1,0-0.2,0-0.3,0c-0.4,0.1-0.7,0.3-0.9,0.6s-0.2,0.7-0.2,1c0.1,0.4,0.3,0.7,0.6,0.9s0.7,0.2,1,0.2
		c0.4-0.1,0.7-0.3,0.9-0.6s0.2-0.7,0.2-1c-0.1-0.4-0.3-0.7-0.6-0.9C447,604,446.8,604,446.5,604z"/>
	<path class="st0" d="M451.2,631c-3,0-5.8-2.1-6.6-5.1c-0.9-3.6,1.3-7.3,4.9-8.2c1.8-0.4,3.6-0.2,5.1,0.8c1.5,0.9,2.6,2.4,3.1,4.2
		c0.4,1.8,0.2,3.6-0.8,5.1s-2.4,2.6-4.2,3.1C452.3,631,451.8,631,451.2,631z M451.2,620.5c-0.3,0-0.6,0-0.9,0.1
		c-2,0.5-3.2,2.6-2.7,4.6c0.5,2,2.6,3.2,4.6,2.7c1-0.2,1.8-0.9,2.3-1.7c0.5-0.9,0.7-1.9,0.4-2.9h0c-0.2-1-0.9-1.8-1.7-2.3
		C452.6,620.7,451.9,620.5,451.2,620.5z"/>
	<path class="st0" d="M451.2,628.6c-0.8,0-1.6-0.2-2.3-0.6c-1-0.6-1.7-1.6-2-2.7c-0.3-1.1-0.1-2.3,0.5-3.3c0.6-1,1.6-1.7,2.7-2
		c1.1-0.3,2.3-0.1,3.3,0.5c1,0.6,1.7,1.6,2,2.7c0.3,1.1,0.1,2.3-0.5,3.3c-0.6,1-1.6,1.7-2.7,2C451.9,628.6,451.6,628.6,451.2,628.6z
		 M451.2,622.9c-0.1,0-0.2,0-0.3,0c-0.4,0.1-0.7,0.3-0.9,0.6s-0.2,0.7-0.2,1c0.1,0.4,0.3,0.7,0.6,0.9c0.3,0.2,0.7,0.2,1,0.2
		c0.4-0.1,0.7-0.3,0.9-0.6s0.2-0.7,0.2-1c-0.1-0.4-0.3-0.7-0.6-0.9C451.7,622.9,451.5,622.9,451.2,622.9z"/>
	<path class="st0" d="M227.5,436.4l-0.9-3.8c-1.8-7.1-0.7-14.5,3.1-20.8c3.8-6.3,9.8-10.7,16.9-12.5l151.2-37.7l0.7,2.9l-151.2,37.7
		c-6.3,1.6-11.7,5.5-15,11.1c-3.4,5.6-4.3,12.2-2.8,18.5l0.2,0.9l87.4-21.8l0.7,2.9L227.5,436.4z"/>
	<polygon class="st0" points="382.9,397.7 382.1,394.8 403.2,389.6 396.7,363.5 399.6,362.8 406.8,391.7 	"/>
	<path class="st0" d="M355.3,435.1c-1.7,0-3.3-0.4-4.8-1.3l-63.4-38.1c-1.8-1.1-3.1-2.7-3.9-4.6l2.8-1.1c0.5,1.3,1.4,2.4,2.6,3.1
		l63.4,38.1c1.4,0.9,3.1,1.1,4.7,0.7c1.6-0.4,3-1.4,3.8-2.8l37.2-61.9l2.6,1.5l-37.2,61.9c-1.3,2.1-3.3,3.6-5.7,4.2
		C356.8,435,356.1,435.1,355.3,435.1z"/>
	<path class="st0" d="M400.5,368.7l-2.6-1.5l0.9-1.5c0.7-1.2,1-2.5,0.9-3.8l3-0.3c0.2,2-0.3,3.9-1.3,5.6L400.5,368.7z"/>
	<polygon class="st0" points="353.2,417.3 302.6,386.8 304.1,384.3 352.2,413.1 380.5,365.9 383.1,367.5 	"/>
	<path class="st0" d="M349.3,405.7c-0.7,0-1.4-0.2-2-0.6l-34.4-20.7l1.5-2.6l34.4,20.7c0.4,0.3,1,0.1,1.2-0.3l20.4-33.9l2.6,1.5
		l-20.4,33.9C351.9,405,350.7,405.7,349.3,405.7z"/>
	<path class="st0" d="M353.4,421.8c-0.7,0-1.4-0.2-2-0.6l-54.1-32.5l1.5-2.6l54.1,32.5c0.4,0.3,1,0.1,1.2-0.3l32-53.2l2.6,1.5
		l-32,53.2C356,421.2,354.7,421.8,353.4,421.8z"/>
	<path class="st1" d="M375,613.3"/>
	<polygon class="st0" points="391.8,687.1 382.9,651.1 385.8,650.4 394,683.5 442,671.5 433.8,638.4 436.7,637.7 445.7,673.7 	"/>
	
		<rect x="421.6" y="577.5" transform="matrix(0.9703 -0.2417 0.2417 0.9703 -129.8837 119.737)" class="st0" width="3" height="23.5"/>
	
		<rect x="399.5" y="497.8" transform="matrix(0.9703 -0.2417 0.2417 0.9703 -109.0988 111.776)" class="st0" width="3" height="5.3"/>
	
		<rect x="385.9" y="403.4" transform="matrix(0.9703 -0.2417 0.2417 0.9703 -96.3037 106.8588)" class="st0" width="3" height="85.1"/>
	
		<rect x="349" y="413.9" transform="matrix(0.9703 -0.2417 0.2417 0.9703 -114.1175 100.0015)" class="st0" width="3" height="202.4"/>
	<polygon class="st0" points="398.2,685.5 389.2,649.5 392.1,648.8 400.4,681.9 435.7,673.1 427.4,640 430.3,639.3 439.3,675.3 	"/>
	
		<rect x="415.1" y="578.1" transform="matrix(0.9704 -0.2417 0.2417 0.9704 -130.3365 118.1945)" class="st0" width="3" height="24.5"/>
	
		<rect x="394" y="502.3" transform="matrix(0.9703 -0.2418 0.2418 0.9703 -110.5377 110.6432)" class="st0" width="3" height="6.7"/>
	
		<rect x="380.7" y="411.4" transform="matrix(0.9703 -0.2417 0.2417 0.9703 -97.961 105.7853)" class="st0" width="3" height="81.5"/>
	
		<rect x="356.2" y="418.9" transform="matrix(0.9703 -0.2417 0.2417 0.9703 -114.3032 101.784)" class="st0" width="3" height="195.8"/>
</g>
<g id="b1">
	<path class="st0" d="M284.3,728.6c-5.6,0-10.7-3.8-12.1-9.5l-2.8-11.4l2.9-0.7l2.8,11.4c1.3,5.1,6.4,8.2,11.5,6.9l45-11.2
		c2.5-0.6,4.5-2.1,5.8-4.3c1.3-2.2,1.7-4.7,1.1-7.2l-9.5-38.1l2.9-0.7l9.5,38.1c0.8,3.2,0.3,6.6-1.4,9.5c-1.7,2.9-4.5,4.9-7.7,5.7
		l-45,11.2C286.3,728.5,285.3,728.6,284.3,728.6z"/>
	<rect x="327.7" y="653.4" transform="matrix(0.9704 -0.2417 0.2417 0.9704 -149.483 99.0909)" class="st0" width="3" height="11"/>
	
		<rect x="262.6" y="669.1" transform="matrix(0.9704 -0.2417 0.2417 0.9704 -156.7206 84.0297)" class="st0" width="3" height="23.5"/>
	
		<rect x="287.2" y="662.4" transform="matrix(0.9704 -0.2416 0.2416 0.9704 -151.6731 90.9925)" class="st0" width="15.9" height="3"/>
	<path class="st1" d="M302.9,662"/>
	<path class="st0" d="M265.8,672.4c-5.6,0-10.7-3.8-12.1-9.5l-4.2-16.8c-1.7-6.7,2.4-13.5,9.1-15.2l53.5-13.3
		c6.7-1.7,13.5,2.4,15.2,9.1l4.2,16.8c1.7,6.7-2.4,13.5-9.1,15.2l-3.6,0.9l-0.7-2.9l3.6-0.9c5.1-1.3,8.2-6.4,6.9-11.5l-4.2-16.8
		c-1.3-5.1-6.4-8.2-11.5-6.9l-53.5,13.3c-5.1,1.3-8.2,6.4-6.9,11.5l4.2,16.8c1.3,5.1,6.4,8.2,11.5,6.9l3.2-0.8l0.7,2.9l-3.2,0.8
		C267.8,672.3,266.8,672.4,265.8,672.4z"/>
	<path class="st0" d="M278.5,681.3c-1.2,0-2.3-0.3-3.3-0.9c-1.5-0.9-2.5-2.3-3-4l-3.2-12.7c-0.4-1.7-0.2-3.4,0.7-4.9
		c0.9-1.5,2.3-2.5,4-3l5.7-1.4c1.7-0.4,3.4-0.2,4.9,0.7c1.5,0.9,2.5,2.3,3,4l3.2,12.7c0.9,3.5-1.3,7-4.7,7.9l0,0l-5.7,1.4
		C279.5,681.3,279,681.3,278.5,681.3z M281,657.2c-0.3,0-0.6,0-0.9,0.1l-5.7,1.4c-0.9,0.2-1.7,0.8-2.2,1.6s-0.6,1.7-0.4,2.6
		l3.2,12.7c0.2,0.9,0.8,1.7,1.6,2.2c0.8,0.5,1.7,0.6,2.6,0.4l5.7-1.4c1.9-0.5,3-2.4,2.6-4.2l-3.2-12.7c-0.2-0.9-0.8-1.7-1.6-2.2
		C282.3,657.4,281.7,657.2,281,657.2z"/>
	<path class="st0" d="M309.3,673.6c-2.9,0-5.6-2-6.3-4.9l-3.2-12.7c-0.4-1.7-0.2-3.4,0.7-4.9c0.9-1.5,2.3-2.5,4-3l5.7-1.4
		c1.7-0.4,3.4-0.2,4.9,0.7s2.5,2.3,3,4l3.2,12.7c0.9,3.5-1.3,7-4.7,7.9l-5.7,1.4C310.4,673.6,309.9,673.6,309.3,673.6z M311.9,649.5
		c-0.3,0-0.6,0-0.9,0.1l-5.7,1.4c-0.9,0.2-1.7,0.8-2.2,1.6c-0.5,0.8-0.6,1.7-0.4,2.6l3.2,12.7c0.5,1.9,2.4,3,4.2,2.5l5.7-1.4
		c1.9-0.5,3-2.4,2.6-4.2l-3.2-12.7c-0.2-0.9-0.8-1.7-1.6-2.2C313.2,649.7,312.5,649.5,311.9,649.5z"/>
</g>
<g id="bandolier">
	<path class="st0" d="M300.6,500.4c-35.2-31.5-54.1-63.7-54.9-65.1c-0.8-1.4-1.4-2.9-1.8-4.5l2.9-0.7c0.3,1.3,0.8,2.6,1.5,3.7
		c0.8,1.3,19.5,33.2,54.3,64.4L300.6,500.4z"/>
	<path class="st0" d="M390.9,552.4c-5.5-1.6-11.1-3.5-16.5-5.7c-13.1-5.1-26-11.7-38.5-19.6l1.6-2.5c12.3,7.8,25.1,14.3,38,19.3
		c5.4,2.1,10.8,4,16.3,5.6L390.9,552.4z"/>
	<path class="st0" d="M446.1,560.5c-5.8,0-11.6-0.3-17.4-0.8l0.3-3c13.7,1.2,27.6,1,41.5-0.8c0.6-0.1,1.1-0.2,1.7-0.3
		c7-1.7,11.6-8.5,10.7-15.7c-0.5-3.8-2.4-7.2-5.4-9.5c-3-2.3-6.8-3.4-10.6-2.9c-11.7,1.5-23.4,1.7-34.8,0.7l0.3-3
		c11.2,0.9,22.7,0.7,34.2-0.7c4.6-0.6,9.1,0.7,12.8,3.5c3.6,2.8,6,6.9,6.5,11.5c1.1,8.7-4.5,16.8-13,18.9c-0.7,0.2-1.4,0.3-2.1,0.4
		C462.6,559.9,454.3,560.5,446.1,560.5z"/>
	<path class="st0" d="M395,520.7c-19.1-6.2-37.8-16.1-55.7-29.4l1.8-2.4c17.7,13.1,36.1,22.9,54.9,29L395,520.7z"/>
	<path class="st0" d="M308.3,464c-1.2-1.2-2.3-2.4-3.4-3.5l2.2-2.1c1.1,1.2,2.2,2.3,3.3,3.5L308.3,464z"/>
	<path class="st0" d="M298.1,453c-11.5-13.2-19.3-24.4-22.9-30l2.5-1.6c3.5,5.5,11.2,16.6,22.6,29.6L298.1,453z"/>
	<path class="st0" d="M244.4,432c-2.9,0-5.5-2-6.3-4.9l-2.1-8.3c-0.9-3.5,1.3-7,4.7-7.8l30.1-7.5c3.5-0.9,7,1.3,7.8,4.7l2.1,8.3
		c0.9,3.5-1.3,7-4.7,7.8l-30.1,7.5C245.4,431.9,244.9,432,244.4,432z M272.4,406.2c-0.3,0-0.6,0-0.8,0.1l-30.1,7.5
		c-1.9,0.5-3,2.3-2.5,4.2l2.1,8.3c0.5,1.9,2.3,3,4.2,2.5l30.1-7.5c1.9-0.5,3-2.3,2.5-4.2l-2.1-8.3
		C275.4,407.3,274,406.2,272.4,406.2z"/>
</g>
<g id="g2">
	<path class="st0" d="M338.1,504.4l-37.4-3.9l0.8-7.4l37.4,3.9L338.1,504.4z M304,497.8l31.4,3.3l0.2-1.5l-31.4-3.3L304,497.8z"/>
	<path class="st0" d="M340.1,485.4l-37.4-3.9l0.8-7.4l37.4,3.9L340.1,485.4z M306,478.8l31.4,3.3l0.2-1.5l-31.4-3.3L306,478.8z"/>
	<path class="st0" d="M335.9,525.6l-37.4-3.9l0.8-7.4l37.4,3.9L335.9,525.6z M301.8,519l31.4,3.3l0.2-1.5l-31.4-3.3L301.8,519z"/>
	<path class="st0" d="M332.1,522.9c-0.2,0-0.5,0-0.7,0h0l-28-2.9c-1.7-0.2-3.3-1-4.4-2.4c-1.1-1.3-1.6-3-1.4-4.8l0.9-9
		c0.2-1.7,1-3.3,2.4-4.4s3-1.6,4.8-1.4l28,2.9c1.7,0.2,3.3,1,4.4,2.4c1.1,1.3,1.6,3,1.4,4.8l-0.9,9
		C338.2,520.5,335.4,522.9,332.1,522.9z M331.7,519.9c1.9,0.2,3.6-1.2,3.8-3.1l0.9-9c0.1-0.9-0.2-1.8-0.8-2.6
		c-0.6-0.7-1.4-1.2-2.4-1.3l-28-2.9c-0.9-0.1-1.8,0.2-2.6,0.8c-0.7,0.6-1.2,1.4-1.3,2.4l-0.9,9c-0.1,0.9,0.2,1.8,0.8,2.6
		c0.6,0.7,1.4,1.2,2.4,1.3L331.7,519.9L331.7,519.9z"/>
	<path class="st0" d="M334.3,501.7c-0.2,0-0.5,0-0.7,0l-28-2.9c-1.7-0.2-3.3-1-4.4-2.4c-1.1-1.3-1.6-3-1.4-4.8l0.9-9
		c0.2-1.7,1-3.3,2.4-4.4c1.3-1.1,3-1.6,4.8-1.4l28,2.9c3.6,0.4,6.2,3.6,5.8,7.1l-0.9,9c-0.2,1.7-1,3.3-2.4,4.4
		C337.3,501.2,335.8,501.7,334.3,501.7z M307.2,479.7c-0.8,0-1.6,0.3-2.2,0.8c-0.7,0.6-1.2,1.4-1.3,2.4l-0.9,9
		c-0.1,0.9,0.2,1.8,0.8,2.6c0.6,0.7,1.4,1.2,2.4,1.3l28,2.9c0.9,0.1,1.8-0.2,2.6-0.8c0.7-0.6,1.2-1.4,1.3-2.4l0.9-9
		c0.2-1.9-1.2-3.6-3.1-3.8l-28-2.9C307.5,479.7,307.4,479.7,307.2,479.7z"/>
	<path class="st0" d="M339.2,480.8c-0.1,0-0.3,0-0.4,0l-33.8-3.5c-1-0.1-1.8-0.6-2.4-1.3c-0.6-0.7-0.9-1.7-0.8-2.6l0.1-1.3
		c0.4-3.6,2.1-6.8,5-9.1s6.3-3.3,10-3l14,1.5c3.6,0.4,6.8,2.1,9.1,5c2.3,2.8,3.3,6.4,3,10l-0.1,1.3c-0.1,1-0.6,1.8-1.3,2.4
		C340.8,480.5,340,480.8,339.2,480.8z M315.4,462.8c-2.4,0-4.7,0.8-6.6,2.4c-2.2,1.8-3.6,4.3-3.9,7.1l-0.1,1.3
		c0,0.3,0.2,0.6,0.5,0.6l33.8,3.5c0.2,0,0.4-0.1,0.4-0.1c0.1-0.1,0.2-0.2,0.2-0.4l0.1-1.3c0.3-2.8-0.5-5.6-2.3-7.8
		c-1.8-2.2-4.3-3.6-7.1-3.9l-14-1.5C316.1,462.9,315.7,462.8,315.4,462.8z"/>
	<path class="st0" d="M324,539.9c-0.5,0-0.9,0-1.4-0.1l-14-1.5c-7.4-0.8-12.9-7.5-12.1-14.9l0.1-1.3c0.2-2,2-3.4,3.9-3.2l33.8,3.5
		c2,0.2,3.4,2,3.2,3.9l-0.1,1.3C336.7,534.7,330.8,539.9,324,539.9z M300.2,521.9c-0.3,0-0.5,0.2-0.6,0.5l-0.1,1.3
		c-0.6,5.8,3.6,11,9.4,11.6l14,1.5c5.8,0.6,11-3.6,11.6-9.4l0.1-1.3c0-0.3-0.2-0.6-0.5-0.6L300.2,521.9
		C300.2,521.9,300.2,521.9,300.2,521.9z"/>
	<path class="st0" d="M291.4,471.3c-0.2,0-0.5,0-0.7,0c-1.7-0.2-3.3-1-4.4-2.4c-1.1-1.3-1.6-3-1.4-4.8c0.2-1.7,1-3.3,2.4-4.4
		l16.7-13.5c1.3-1.1,3-1.6,4.8-1.4l17.2,1.8c3.6,0.4,6.2,3.6,5.8,7.1l-0.9,8.4l-3-0.3l0.9-8.4c0.2-1.9-1.2-3.6-3.1-3.8l-17.2-1.8
		c-0.9-0.1-1.8,0.2-2.6,0.8l-16.7,13.5c-0.7,0.6-1.2,1.4-1.3,2.4c-0.1,0.9,0.2,1.8,0.8,2.6c0.6,0.7,1.4,1.2,2.4,1.3
		c0.9,0.1,1.8-0.2,2.6-0.8l15.5-12.6l10.9,1.1l-0.5,5.3l-3-0.3l0.2-2.3l-6.7-0.7l-14.6,11.8C294.3,470.8,292.9,471.3,291.4,471.3z"
		/>
</g>
<g id="g1">
	<path class="st0" d="M430.1,544.7l-37.4-3.9l0.8-7.4l37.4,3.9L430.1,544.7z M396,538.1l31.4,3.3l0.2-1.5l-31.4-3.3L396,538.1z"/>
	<path class="st0" d="M432.1,525.7l-37.4-3.9l0.8-7.4l37.4,3.9L432.1,525.7z M398,519.1l31.4,3.3l0.2-1.5l-31.4-3.3L398,519.1z"/>
	<path class="st0" d="M427.9,565.9l-37.4-3.9l0.8-7.4l37.4,3.9L427.9,565.9z M393.8,559.3l31.4,3.3l0.2-1.5l-31.4-3.3L393.8,559.3z"
		/>
	<path class="st0" d="M424.1,563.2c-0.2,0-0.5,0-0.7,0l-28-2.9c-1.7-0.2-3.3-1-4.4-2.4s-1.6-3-1.4-4.8l0.9-9c0.2-1.7,1-3.3,2.4-4.4
		c1.3-1.1,3-1.6,4.8-1.4l28,2.9c1.7,0.2,3.3,1,4.4,2.4c1.1,1.3,1.6,3,1.4,4.8l-0.9,9c-0.2,1.7-1,3.3-2.4,4.4
		C427,562.7,425.6,563.2,424.1,563.2z M423.7,560.2c0.9,0.1,1.8-0.2,2.6-0.8c0.7-0.6,1.2-1.4,1.3-2.4l0.9-9c0.1-0.9-0.2-1.8-0.8-2.6
		c-0.6-0.7-1.4-1.2-2.4-1.3l-28-2.9c-0.9-0.1-1.8,0.2-2.6,0.8c-0.7,0.6-1.2,1.4-1.3,2.4l-0.9,9c-0.1,0.9,0.2,1.8,0.8,2.6
		c0.6,0.7,1.4,1.2,2.4,1.3L423.7,560.2z"/>
	<path class="st0" d="M426.3,542c-0.2,0-0.5,0-0.7,0l-28-2.9c-1.7-0.2-3.3-1-4.4-2.4s-1.6-3-1.4-4.8l0.9-9c0.2-1.7,1-3.3,2.4-4.4
		s3-1.6,4.8-1.4l28,2.9c1.7,0.2,3.3,1,4.4,2.4s1.6,3,1.4,4.8l-0.9,9c-0.2,1.7-1,3.3-2.4,4.4C429.3,541.5,427.8,542,426.3,542z
		 M426,539c0.9,0.1,1.8-0.2,2.6-0.8c0.7-0.6,1.2-1.4,1.3-2.4l0.9-9c0.1-0.9-0.2-1.8-0.8-2.6c-0.6-0.7-1.4-1.2-2.4-1.3l-28-2.9
		c-0.9-0.1-1.8,0.2-2.6,0.8c-0.7,0.6-1.2,1.4-1.3,2.4l-0.9,9c-0.1,0.9,0.2,1.8,0.8,2.6c0.6,0.7,1.4,1.2,2.4,1.3L426,539z"/>
	<path class="st0" d="M431.2,521.1c-0.1,0-0.2,0-0.4,0l-33.8-3.5c-1-0.1-1.8-0.6-2.4-1.3s-0.9-1.7-0.8-2.6l0.1-1.3
		c0.4-3.6,2.1-6.8,5-9.1c2.8-2.3,6.3-3.3,10-3l14,1.5c3.6,0.4,6.8,2.1,9.1,5c2.3,2.8,3.3,6.4,3,10l-0.1,1.3
		C434.5,519.7,433,521.1,431.2,521.1z M407.4,503.1c-2.4,0-4.7,0.8-6.6,2.4c-2.2,1.8-3.6,4.3-3.9,7.1l-0.1,1.3
		c0,0.2,0.1,0.4,0.1,0.4s0.2,0.2,0.4,0.2l33.8,3.5c0.3,0,0.6-0.2,0.6-0.5l0.1-1.3c0.3-2.8-0.5-5.6-2.3-7.8c-1.8-2.2-4.3-3.6-7.1-3.9
		l-14-1.5C408.1,503.2,407.7,503.1,407.4,503.1z"/>
	<path class="st0" d="M416,580.2c-0.5,0-1,0-1.4-0.1l-14-1.5c-3.6-0.4-6.8-2.1-9.1-5c-2.3-2.8-3.3-6.4-3-10l0.1-1.3
		c0.2-2,2-3.4,3.9-3.2l33.8,3.5c2,0.2,3.4,2,3.2,3.9l-0.1,1.3c-0.4,3.6-2.1,6.8-5,9.1C422.1,579.1,419.1,580.2,416,580.2z
		 M392.2,562.2c-0.3,0-0.5,0.2-0.6,0.5l-0.1,1.3c-0.3,2.8,0.5,5.6,2.3,7.8c1.8,2.2,4.3,3.6,7.1,3.9l14,1.5c2.8,0.3,5.6-0.5,7.8-2.3
		c2.2-1.8,3.6-4.3,3.9-7.1l0.1-1.3c0-0.3-0.2-0.6-0.5-0.6L392.2,562.2C392.2,562.2,392.2,562.2,392.2,562.2z"/>
	<path class="st0" d="M383.4,511.6c-0.2,0-0.5,0-0.7,0c-1.7-0.2-3.3-1-4.4-2.4c-1.1-1.3-1.6-3-1.4-4.8s1-3.3,2.4-4.4l16.7-13.5
		c1.3-1.1,3-1.6,4.8-1.4l17.2,1.8c3.6,0.4,6.2,3.6,5.8,7.1l-1,9.1l-3-0.3l1-9.1c0.2-1.9-1.2-3.6-3.1-3.8l-17.2-1.8
		c-0.9-0.1-1.8,0.2-2.6,0.8l-16.7,13.5c-0.7,0.6-1.2,1.4-1.3,2.4c-0.1,0.9,0.2,1.8,0.8,2.6c0.6,0.7,1.4,1.2,2.4,1.3
		c0.9,0.1,1.8-0.2,2.6-0.8l15.5-12.6l10.9,1.1l-0.6,5.6l-3-0.3l0.3-2.6l-6.7-0.7l-14.6,11.8C386.3,511.1,384.9,511.6,383.4,511.6z"
		/>
</g>
<g id="face" class="st2">
	<g class="st3">
		<g>
			<path class="st4" d="M429.6,345.3c-0.9,1.8-2,3.4-3.4,5"/>
			<path class="st5" d="M415.9,357.4c-0.8,0.3-1.7,0.6-2.6,0.8l-155.2,38.7c-2.7,0.7-5.3,0.9-7.9,0.7"/>
			<path class="st4" d="M244.1,396.2c-1.9-0.6-3.7-1.5-5.4-2.6"/>
		</g>
	</g>
</g>
<g id="mask">
	<g id="Layer_1">
		<path class="st0" d="M308.8,381.4c-1.2,0-2.5-0.3-3.6-1l-11.8-7.1l-0.2-0.6l-49-196.5l148.8-37.1c3.7-0.9,7.5,1.3,8.4,5.1
			l46.2,185.4c0.8,3.2,0.3,6.6-1.4,9.4l-4.4,7.4c-1,1.6-2.5,2.7-4.3,3.2c-1.8,0.5-3.7,0.2-5.3-0.8l-9.9-6l-6,9.9
			c-1,1.6-2.5,2.7-4.3,3.2c-1.8,0.5-3.7,0.2-5.3-0.8l-9.9-6l-6,9.9c-1,1.6-2.5,2.7-4.3,3.2c-1.8,0.5-3.7,0.2-5.3-0.8l-9.9-6l-6,9.9
			c-2,3.3-6.3,4.4-9.6,2.4l-9.9-6l-6,9.9c-1,1.6-2.5,2.7-4.3,3.2c-1.8,0.4-3.7,0.2-5.3-0.8l-9.9-6l-6,9.9
			C313.4,380.2,311.1,381.4,308.8,381.4z M296,371.4l10.7,6.4c0.9,0.5,2,0.7,3,0.4c1-0.3,1.9-0.9,2.4-1.8l7.5-12.5l12.5,7.5
			c0.9,0.5,2,0.7,3,0.4c1-0.3,1.9-0.9,2.4-1.8l7.5-12.5l12.5,7.5c1.9,1.1,4.3,0.5,5.4-1.4l7.5-12.5l12.5,7.5c0.9,0.5,2,0.7,3,0.4
			c1-0.3,1.9-0.9,2.4-1.8L396,345l12.5,7.5c0.9,0.5,2,0.7,3,0.4c1-0.3,1.9-0.9,2.4-1.8l7.5-12.5l12.5,7.5c0.9,0.5,2,0.7,3,0.4
			c1-0.3,1.9-0.9,2.4-1.8l4.4-7.4c1.3-2.2,1.7-4.7,1.1-7.1l-46.2-185.4c-0.5-2.1-2.7-3.4-4.8-2.9l-0.4-1.5l0.4,1.5l-145.9,36.3
			L296,371.4z"/>
		<path class="st0" d="M232.4,400.4c-1.2,0-2.5-0.3-3.6-1l-7.4-4.4c-2.8-1.7-4.9-4.4-5.7-7.6L169.7,202c-0.4-1.8-0.2-3.7,0.8-5.3
			c1-1.6,2.5-2.7,4.3-3.2l72.5-18.1L296,371.4l0.7,0.5l-0.8,1.3l-6.8,11.2c-1,1.6-2.5,2.7-4.3,3.2c-1.8,0.4-3.7,0.2-5.3-0.8l-9.9-6
			l-6,9.9c-2,3.3-6.3,4.4-9.6,2.4l-9.9-6l-6,9.9C237.1,399.2,234.8,400.4,232.4,400.4z M245,179.1l-69.6,17.3
			c-1,0.3-1.9,0.9-2.4,1.8s-0.7,2-0.4,3v0l46.2,185.4c0.6,2.4,2.1,4.5,4.3,5.8l7.4,4.4c0.9,0.5,2,0.7,3,0.4c1-0.3,1.9-0.9,2.4-1.8
			l7.5-12.5l12.5,7.5c1.9,1.1,4.3,0.5,5.4-1.4l7.5-12.5l12.5,7.5c1.9,1.1,4.3,0.5,5.4-1.4l6.4-10.7L245,179.1z"/>
	</g>
	<g id="Layer_2">
		<path class="st0" d="M350.8,201.6c-3,0-5.7-2-6.5-5.1c-0.9-3.6,1.3-7.2,4.9-8.1l21.8-5.4l-4-16c-0.4-1.7-0.2-3.5,0.8-5.1
			s2.4-2.6,4.1-3c1.7-0.4,3.5-0.2,5.1,0.8c1.5,0.9,2.6,2.4,3,4.1l5.6,22.5c0.4,1.7,0.2,3.5-0.8,5.1c-0.9,1.5-2.4,2.6-4.1,3
			l-28.3,7.1C351.9,201.6,351.4,201.6,350.8,201.6z M373.6,161.7c-0.3,0-0.6,0-0.9,0.1c-1,0.2-1.8,0.8-2.3,1.7
			c-0.5,0.8-0.7,1.8-0.4,2.8l4.7,18.9l-24.7,6.2c-2,0.5-3.2,2.5-2.7,4.5c0.5,2,2.5,3.2,4.5,2.7l28.3-7.1c1-0.2,1.8-0.8,2.3-1.7
			c0.5-0.8,0.7-1.8,0.4-2.8l-5.6-22.5c-0.2-1-0.8-1.8-1.7-2.3C374.9,161.9,374.2,161.7,373.6,161.7z"/>
		<path class="st0" d="M286.4,217.7c-1.2,0-2.4-0.3-3.4-1c-1.5-0.9-2.6-2.4-3-4.1l-5.6-22.5c-0.4-1.7-0.2-3.5,0.8-5.1
			c0.9-1.5,2.4-2.6,4.1-3c1.7-0.4,3.5-0.2,5.1,0.8c1.5,0.9,2.6,2.4,3,4.1l4,16l21.8-5.4c1.7-0.4,3.5-0.2,5.1,0.8
			c1.5,0.9,2.6,2.4,3,4.1c0.4,1.7,0.2,3.5-0.8,5.1c-0.9,1.5-2.4,2.6-4.1,3h0l-28.3,7.1C287.5,217.6,287,217.7,286.4,217.7z
			 M280.8,184.8c-0.3,0-0.6,0-0.9,0.1c-2,0.5-3.2,2.5-2.7,4.5l5.6,22.5c0.2,1,0.8,1.8,1.7,2.3c0.8,0.5,1.8,0.7,2.8,0.4l28.3-7.1
			c1-0.2,1.8-0.8,2.3-1.7c0.5-0.8,0.7-1.8,0.4-2.8c-0.2-1-0.8-1.8-1.7-2.3c-0.8-0.5-1.8-0.7-2.8-0.4l-24.7,6.2l-4.7-18.9
			c-0.2-1-0.8-1.8-1.7-2.3C282.1,185,281.5,184.8,280.8,184.8z"/>
		<path class="st0" d="M304,301.4c-3.5,0-6.6-2.3-7.5-5.9c-1-4.1,1.5-8.3,5.6-9.4l0.7,2.9c-2.5,0.6-4.1,3.2-3.4,5.7
			c0.6,2.5,3.2,4.1,5.7,3.4l0.7,2.9C305.3,301.3,304.6,301.4,304,301.4z"/>
		<path class="st0" d="M404.3,276.7l-0.7-2.9c1.2-0.3,2.3-1.1,2.9-2.1c0.6-1.1,0.8-2.4,0.5-3.6c-0.3-1.2-1.1-2.3-2.2-2.9
			c-1.1-0.6-2.4-0.8-3.6-0.5l-0.7-2.9c2-0.5,4.1-0.2,5.8,0.9c1.8,1.1,3,2.8,3.5,4.8c0.5,2,0.2,4.1-0.9,5.8
			C408,274.9,406.3,276.2,404.3,276.7z"/>
		<path class="st0" d="M363.7,352.4c-5.9,0-11.2-4-12.7-9.9l-1.9-7.7l2.9-0.7l1.9,7.7c1.3,5.4,6.8,8.7,12.3,7.4l7.3-1.8
			c5.4-1.3,8.7-6.8,7.4-12.3l-1.9-7.7l2.9-0.7l1.9,7.7c1.7,7-2.5,14.1-9.6,15.9l-7.3,1.8C365.8,352.3,364.8,352.4,363.7,352.4z"/>
		<path class="st0" d="M324.7,341.9c-2.3,0-4.7-0.6-6.7-1.9c-3-1.8-5.1-4.7-6-8L290,243.4l101.3-25.2l22.1,88.6
			c0.8,3.4,0.3,6.9-1.5,9.9c-1.8,3-4.7,5.1-8.1,6l-75.9,18.9C326.9,341.8,325.8,341.9,324.7,341.9z M293.6,245.6l21.4,85.7
			c0.6,2.6,2.3,4.8,4.6,6.2c2.3,1.4,5,1.8,7.7,1.1l75.9-18.9c2.6-0.7,4.8-2.3,6.2-4.6s1.8-5,1.1-7.7l-21.3-85.7L293.6,245.6z"/>
		<path class="st0" d="M298,275.9l-8.1-32.5l13.1-3.3l5.2,20.8c1.6,6.4-2.3,12.9-8.7,14.5L298,275.9z M293.6,245.6l6.6,26.5
			c4-1.7,6.2-6.1,5.1-10.4l-4.5-17.9L293.6,245.6z"/>
		<path class="st0" d="M395,251.4c-5.4,0-10.3-3.6-11.6-9.1l-5.2-20.8l13.1-3.3l8.1,32.5l-1.5,0.4C397,251.2,396,251.4,395,251.4z
			 M381.8,223.6l4.5,17.9c0.6,2.3,2,4.3,4.1,5.5c1.6,1,3.5,1.4,5.3,1.3l-6.6-26.5L381.8,223.6z"/>
		<path class="st0" d="M360,323.2c-5.3,0-10.3-2.8-12.9-7.6c-0.7-1.2-0.7-2.6-0.2-3.8c0.5-1.2,1.6-2.1,2.9-2.4l19.8-4.9
			c1.3-0.3,2.6,0,3.7,0.8c1.1,0.8,1.6,2.1,1.6,3.5c-0.1,6.6-4.7,12.4-11.2,14C362.4,323.1,361.2,323.2,360,323.2z M350.4,312.3
			c-0.5,0.1-0.8,0.5-0.8,0.7c-0.2,0.4-0.1,0.8,0.1,1.2c2.6,4.6,8,7,13.1,5.7c5.2-1.3,8.8-5.9,8.9-11.2c0-0.4-0.2-0.8-0.5-1.1
			c-0.3-0.2-0.7-0.3-1.1-0.2L350.4,312.3z"/>
		<path class="st0" d="M344.2,313.7c-1.3,0-2.5-0.4-3.5-1.2c-1.4-1.1-2.2-2.8-2.1-4.6c0.2-9.6,6.9-18,16.2-20.3
			c9.3-2.3,19.1,1.9,23.9,10.3c0.9,1.6,1,3.4,0.3,5.1c-0.7,1.6-2.1,2.8-3.8,3.2l-29.6,7.4C345.1,313.6,344.6,313.7,344.2,313.7z
			 M359.9,290c-1.5,0-3,0.2-4.4,0.5c-8.1,2-13.8,9.2-14,17.4c0,0.9,0.3,1.6,1,2.2c0.6,0.5,1.5,0.7,2.3,0.5l29.6-7.4
			c0.8-0.2,1.4-0.7,1.8-1.5c0.3-0.8,0.3-1.6-0.1-2.4C372.7,293.5,366.5,290,359.9,290z"/>
		<path class="st0" d="M349.7,290.9l-0.8-3.1c-0.8-3.1,1.1-6.2,4.2-6.9c3.1-0.8,6.2,1.1,6.9,4.2l0.8,3.2l-2.9,0.7l-0.8-3.2
			c-0.4-1.5-1.8-2.4-3.3-2c-1.5,0.4-2.4,1.8-2,3.3l0.8,3.1L349.7,290.9z"/>
		<path class="st0" d="M375.1,284.4c-3.8,0-7.2-2.6-8.2-6.4c-0.7-2.8,0.1-5.7,2-7.8l2.2,2c-1.3,1.4-1.7,3.2-1.3,5
			c0.3,1.4,1.2,2.6,2.5,3.3s2.7,1,4.1,0.6c1.4-0.4,2.6-1.2,3.3-2.5c0.7-1.2,1-2.7,0.6-4.1c-0.4-1.8-1.8-3.2-3.5-3.8l1-2.8
			c2.7,0.9,4.7,3.2,5.4,5.9c1.1,4.5-1.6,9.1-6.1,10.2C376.4,284.3,375.7,284.4,375.1,284.4z"/>
		<path class="st0" d="M331.4,295.3c-3.8,0-7.2-2.6-8.2-6.4c-0.6-2.6,0-5.4,1.7-7.5l2.3,1.9c-1.1,1.3-1.5,3.1-1.1,4.8
			c0.7,2.9,3.7,4.7,6.6,3.9c2.9-0.7,4.7-3.7,3.9-6.6c-0.4-1.8-1.8-3.2-3.5-3.8l1-2.8c2.7,0.9,4.7,3.2,5.4,5.9
			c1.1,4.5-1.6,9.1-6.1,10.2C332.8,295.2,332.1,295.3,331.4,295.3z"/>
		<path class="st0" d="M368.6,273c-0.7,0-1.3-0.2-1.9-0.5c-0.9-0.5-1.5-1.3-1.7-2.3l-0.3-1.3c-0.5-2,0.7-4.1,2.8-4.6l9-2.2
			c2-0.5,4.1,0.7,4.6,2.8l0.3,1.3c0.2,1,0.1,2-0.4,2.9c-0.5,0.9-1.3,1.5-2.3,1.7l-9,2.2C369.2,273,368.9,273,368.6,273z
			 M377.2,264.9c-0.1,0-0.1,0-0.2,0l-9,2.2c-0.4,0.1-0.7,0.5-0.6,0.9l0.3,1.3c0.1,0.3,0.3,0.4,0.4,0.5c0.1,0.1,0.3,0.2,0.6,0.1
			l9-2.2c0.3-0.1,0.4-0.3,0.5-0.4c0.1-0.1,0.2-0.3,0.1-0.6l-0.3-1.3C377.9,265.2,377.6,264.9,377.2,264.9z"/>
		<path class="st0" d="M325,283.9c-0.7,0-1.3-0.2-1.9-0.5c-0.9-0.5-1.5-1.3-1.7-2.3l-0.3-1.3c-0.3-0.9-0.1-1.9,0.4-2.8
			c0.5-0.9,1.4-1.5,2.4-1.8l9-2.2c1-0.2,2-0.1,2.9,0.4c0.9,0.5,1.5,1.3,1.7,2.3l0.3,1.3c0.2,1,0.1,2-0.4,2.9s-1.3,1.5-2.3,1.7
			l-9,2.2C325.6,283.9,325.3,283.9,325,283.9z M333.7,275.8c-0.1,0-0.1,0-0.2,0l-9,2.2c-0.2,0.1-0.4,0.2-0.5,0.4
			c-0.1,0.1-0.1,0.3-0.1,0.5l0.3,1.4c0.1,0.3,0.3,0.4,0.4,0.5c0.1,0.1,0.3,0.2,0.6,0.1l9-2.2c0.3-0.1,0.4-0.3,0.5-0.4
			c0.1-0.1,0.2-0.3,0.1-0.6l-0.3-1.3C334.3,276,334,275.8,333.7,275.8z"/>
		<path class="st0" d="M290.8,274.2c-1.8,0-3.5-0.5-5.1-1.4c-2.3-1.4-3.9-3.5-4.5-6.1l-2.9-11.6c-1.1-4.5,1.6-9.1,6.1-10.2l112.4-28
			c4.5-1.1,9.1,1.6,10.2,6.1l2.9,11.6c1.3,5.3-1.9,10.7-7.2,12l-109.4,27.3C292.4,274.1,291.6,274.2,290.8,274.2z M398.8,219.5
			c-0.4,0-0.9,0.1-1.3,0.2l-112.4,28c-2.9,0.7-4.7,3.7-4,6.6l2.9,11.6c0.4,1.8,1.6,3.3,3.2,4.3c1.6,1,3.5,1.2,5.3,0.8l109.4-27.3
			c3.7-0.9,6-4.7,5.1-8.4l-2.9-11.6C403.5,221.2,401.3,219.5,398.8,219.5z"/>
		<path class="st0" d="M289.1,246.7l-3.6-14.3c-1.5-5.8,0.9-12,6-15.3c6.2-4.1,10.4-10.9,11-18.4c0.6-6,4.9-11,10.7-12.5l16.8-4.2
			l12.8,51.2L289.1,246.7z M314,189.2c-4.6,1.1-8,5.1-8.4,9.8c-0.8,8.3-5.4,16-12.4,20.6c-4,2.6-5.9,7.4-4.7,12.1l2.8,11.4
			l47.9-11.9l-11.3-45.4L314,189.2z"/>
		<path class="st0" d="M339.9,234.1l-12.8-51.2l16.6-4.1c5.9-1.5,12,0.9,15.3,6c4.1,6.3,11,10.4,18.5,11.1c6,0.5,11,4.8,12.5,10.7
			l3.6,14.3L339.9,234.1z M330.8,185l11.3,45.4l47.9-11.9l-2.8-11.3c-1.2-4.6-5.1-8-9.9-8.4c-8.4-0.7-16.1-5.4-20.7-12.4l0,0
			c-2.6-4-7.4-5.9-12-4.7L330.8,185z"/>
		<g>
			<path class="st0" d="M367.6,227.1l-3.5-14c-0.2-0.8-0.1-1.7,0.4-2.5c0.4-0.7,1.2-1.3,2-1.5l1.3-0.3c3-0.8,6.1,1.1,6.9,4.1
				l2.9,11.6L367.6,227.1z M369.3,211.7c-0.2,0-0.4,0-0.6,0.1l-1.3,0.3c-0.1,0-0.1,0.1-0.2,0.1s-0.1,0.1,0,0.2l2.8,11.1l4.2-1
				l-2.2-8.7C371.6,212.5,370.5,211.7,369.3,211.7z"/>
			<path class="st0" d="M377,224.8l-2.4-9.5c-0.4-1.7,0.6-3.5,2.4-4l1.3-0.3c1.5-0.4,3-0.1,4.3,0.6c1.3,0.8,2.2,2,2.6,3.5l1.8,7.1
				L377,224.8z M379.7,213.9c-0.2,0-0.4,0-0.7,0.1l-1.3,0.3c-0.1,0-0.2,0.2-0.2,0.3l1.6,6.6l4.2-1l-1-4.2c-0.2-0.7-0.6-1.3-1.2-1.6
				C380.7,214,380.2,213.9,379.7,213.9z"/>
			<path class="st0" d="M355.7,230.1l-4-16c-0.2-0.9-0.1-1.9,0.4-2.7c0.5-0.8,1.3-1.4,2.2-1.6l1.6-0.4c3.4-0.8,6.9,1.2,7.7,4.6
				l3.3,13.3L355.7,230.1z M357.4,212.2c-0.3,0-0.5,0-0.8,0.1l-1.6,0.4c-0.2,0-0.3,0.2-0.3,0.3c0,0.1-0.1,0.2-0.1,0.4l3.3,13.1
				l5.4-1.3l-2.6-10.4C360.3,213.2,358.9,212.2,357.4,212.2z"/>
			<path class="st0" d="M342.9,233.3l-4.6-18.5c-0.5-2.1,0.8-4.2,2.8-4.7l1.8-0.5c1.9-0.5,3.8-0.2,5.5,0.8c1.6,1,2.8,2.6,3.3,4.4
				l3.8,15.3L342.9,233.3z M344.7,212.4c-0.3,0-0.7,0-1,0.1l-1.8,0.5c-0.5,0.1-0.8,0.6-0.7,1.1l3.9,15.6l6.8-1.7l-3.1-12.4
				c-0.3-1.1-1-2-1.9-2.6C346.2,212.6,345.5,212.4,344.7,212.4z"/>
			<path class="st0" d="M304.4,242.9l-2.9-11.6c-0.4-1.5-0.1-3,0.6-4.3s2-2.2,3.5-2.6l1.3-0.3c0.8-0.2,1.7-0.1,2.5,0.4
				c0.7,0.4,1.3,1.2,1.5,2l3.5,14L304.4,242.9z M307.8,226.9C307.8,226.9,307.8,227,307.8,226.9l-1.4,0.3c-0.7,0.2-1.3,0.6-1.6,1.2
				c-0.4,0.6-0.5,1.3-0.3,2l2.2,8.7l4.2-1l-2.8-11.1c0-0.1-0.1-0.1-0.1-0.2C307.9,227,307.9,226.9,307.8,226.9z"/>
			<path class="st0" d="M295.1,245.2l-1.8-7.1c-0.4-1.5-0.1-3,0.6-4.3s2-2.2,3.5-2.6l1.3-0.3c0.8-0.2,1.7-0.1,2.5,0.4
				c0.7,0.4,1.3,1.2,1.5,2l2.4,9.5L295.1,245.2z M299.6,233.8C299.6,233.8,299.6,233.8,299.6,233.8l-1.4,0.3
				c-0.7,0.2-1.3,0.6-1.6,1.2c-0.4,0.6-0.5,1.3-0.3,2l1,4.2l4.2-1l-1.6-6.6c0-0.1-0.1-0.1-0.1-0.2
				C299.7,233.8,299.6,233.8,299.6,233.8z"/>
			<path class="st0" d="M315.2,240.2l-3.3-13.3c-0.8-3.4,1.2-6.9,4.6-7.7l1.6-0.4c1.9-0.5,3.8,0.7,4.3,2.6l4,16L315.2,240.2z
				 M319,221.7c0,0-0.1,0-0.1,0l-1.6,0.4c-1.8,0.4-2.9,2.3-2.5,4.1l2.6,10.4l5.4-1.3l-3.3-13.1C319.5,221.8,319.2,221.7,319,221.7z"
				/>
			<path class="st0" d="M326.6,237.4l-3.8-15.3c-0.5-1.9-0.2-3.8,0.8-5.5s2.6-2.8,4.4-3.3l1.8-0.5c1-0.3,2.1-0.1,3,0.4
				s1.5,1.4,1.8,2.4l4.6,18.5L326.6,237.4z M330.8,215.7c-0.1,0-0.1,0-0.2,0l-1.8,0.5c-1.1,0.3-2,1-2.6,1.9c-0.6,1-0.7,2.1-0.5,3.2
				l3.1,12.4l6.8-1.7l-3.9-15.6C331.6,216,331.2,215.7,330.8,215.7z"/>
		</g>
		<path class="st0" d="M284,248l-0.6-2.2c-0.7-2.6,1-5.3,3.6-6l104.5-26c1.3-0.3,2.6-0.1,3.7,0.6c1.1,0.7,1.9,1.8,2.2,3l0.6,2.2
			L284,248z M392.7,216.6c-0.2,0-0.3,0-0.5,0.1l-104.5,26c-0.8,0.2-1.4,0.9-1.4,1.6l108-26.9c-0.2-0.2-0.4-0.4-0.6-0.5
			C393.4,216.7,393.1,216.6,392.7,216.6z"/>
	</g>
</g>
<g id="front_arm">
	<path class="st0" d="M199.6,726.6c-2.5,0-5.6-1.6-8.5-4.7c-4.5-4.7-9.2-10.7-13.8-17.8l0,0c-4.7-7.1-8.3-13.7-10.9-19.7
		c-2.3-5.4-2-10,0.8-11.9l42.6-28.1c2.8-1.8,7.2-0.3,11.2,3.9c4.5,4.7,9.2,10.7,13.8,17.8c4.7,7.1,8.3,13.7,10.9,19.7
		c2.3,5.4,2,10-0.8,11.9l-42.6,28.1C201.5,726.4,200.6,726.6,199.6,726.6z M179.7,702.5c4.6,6.9,9.1,12.7,13.5,17.3
		c3.2,3.4,6.2,4.3,7.4,3.5l42.6-28.1c1.2-0.8,1.5-3.9-0.3-8.2c-2.5-5.8-6.1-12.3-10.6-19.2c-4.6-6.9-9.1-12.7-13.5-17.3
		c-3.2-3.4-6.2-4.3-7.4-3.5l-42.6,28.1c-1.2,0.8-1.5,3.9,0.3,8.2C171.6,689.2,175.2,695.6,179.7,702.5L179.7,702.5z"/>
	<path class="st0" d="M206.9,531.3c-1.3,0-2.4-0.4-3.3-1.1l-39.1-32.9c-0.7-0.6-1.2-1.4-1.5-2.3c-0.7-2.5,0-5.9,2.1-9.5
		c3.2-5.7,7.6-11.8,13.1-18.3c5.4-6.4,10.7-11.8,15.7-15.9c11.6-13.7,32.3-15.5,46.1-3.9c6.7,5.6,10.8,13.5,11.6,22.3
		c0.8,8.7-1.9,17.1-7.5,23.8c-3.2,5.6-7.6,11.8-13,18.2c-5.4,6.5-10.8,11.9-15.8,16C212.3,530,209.3,531.3,206.9,531.3z
		 M218.9,442.6c-8.5,0-16.9,3.6-22.8,10.6l-0.2,0.2c-4.9,4-10.1,9.3-15.4,15.6c-5.3,6.3-9.6,12.3-12.8,17.9
		c-1.6,2.8-2.3,5.5-1.8,7.2c0.1,0.4,0.3,0.7,0.6,0.9l39.1,32.9c1.1,1,4.2,0.4,7.8-2.6c4.9-4,10.1-9.3,15.4-15.6
		c5.3-6.3,9.6-12.3,12.8-17.9l0.2-0.2c5.1-6.1,7.6-13.8,6.9-21.7c-0.7-7.9-4.4-15.1-10.5-20.2C232.4,444.9,225.6,442.6,218.9,442.6z
		"/>
	<path class="st0" d="M267.3,712.8l-1.7-2.5c2.2-1.5,3.7-3.7,4.2-6.3c0.5-2.6,0-5.2-1.4-7.4l-1.2-1.8c-1.2-1.9-3.1-3.3-5.3-4
		l0.9-2.9c2.8,0.9,5.2,2.7,6.9,5.2l1.2,1.8c1.9,2.9,2.6,6.3,1.9,9.7C272.1,708,270.2,711,267.3,712.8z"/>
	<path class="st0" d="M247.1,788.8c-0.9,0-1.8-0.1-2.8-0.3c-3.5-0.7-6.6-2.8-8.6-5.8l-30.5-46.2c-2-3-2.7-6.6-1.9-10.1
		s2.8-6.6,5.8-8.6l24.9-16.4c0.3-0.2,0.7-0.4,1.1-0.6c0.3-0.3,0.7-0.5,1-0.7l15.9-10.5c3.3-2.2,7.3-2.7,11-1.5l-0.9,2.9
		c-2.9-0.9-6-0.5-8.5,1.2l-15.9,10.5c-0.3,0.2-0.6,0.4-0.9,0.6l-0.3,0.2c-0.3,0.2-0.6,0.4-1,0.6l-24.9,16.4
		c-2.3,1.5-3.9,3.9-4.5,6.7c-0.6,2.8,0,5.6,1.5,7.9l30.5,46.2c1.5,2.3,3.9,3.9,6.7,4.5c2.8,0.6,5.6,0,7.9-1.5l24.9-16.4
		c4.8-3.2,6.2-9.7,3-14.5l-24.2-36.7l9.2-6.1l1.7,2.5l-6.7,4.4l22.6,34.2c4.1,6.2,2.4,14.6-3.8,18.7l-24.9,16.4
		C252.2,788,249.7,788.8,247.1,788.8z"/>
</g>
</svg>
